<?xml version="1.0" encoding="UTF-8" standalone="no"?><!DOCTYPE svg PUBLIC "-//W3C//DTD SVG 1.1//EN" "http://www.w3.org/Graphics/SVG/1.1/DTD/svg11.dtd"><svg width="100%" height="100%" viewBox="0 0 17 5" version="1.1" xmlns="http://www.w3.org/2000/svg" xmlns:xlink="http://www.w3.org/1999/xlink" xml:space="preserve" xmlns:serif="http://www.serif.com/" style="fill-rule:evenodd;clip-rule:evenodd;stroke-linejoin:round;stroke-miterlimit:1.41421;"><path d="M16.016,4.186c0,0.146 -0.084,0.22 -0.25,0.22c-0.08,0 -0.19,-0.08 -0.33,-0.241c-0.187,-0.219 -0.374,-0.439 -0.56,-0.659c-0.707,-0.794 -1.377,-1.19 -2.01,-1.19c-0.32,0 -0.605,0.066 -0.855,0.2c-0.25,0.134 -0.359,0.2 -0.325,0.2c-0.054,0 -0.08,-0.027 -0.08,-0.08c0,-0.014 0.003,-0.028 0.01,-0.045c0.006,-0.016 0.01,-0.028 0.01,-0.035c0,-0.04 0.02,-0.115 0.06,-0.226c0.04,-0.109 0.06,-0.191 0.06,-0.244c0,-0.107 -0.057,-0.16 -0.17,-0.16l-0.32,0c-0.52,0 -0.927,0.234 -1.22,0.7c-0.22,0.347 -0.414,0.593 -0.58,0.74c-0.2,0.173 -0.42,0.26 -0.661,0.26c-0.433,0 -0.649,-0.303 -0.649,-0.91c0,-0.087 0.028,-0.225 0.085,-0.415c0.056,-0.19 0.085,-0.335 0.085,-0.435c0,-0.133 -0.08,-0.201 -0.24,-0.201c-0.254,0 -0.57,0.098 -0.95,0.29c-0.4,0.207 -0.69,0.441 -0.87,0.701c-0.014,0.02 -0.05,0.093 -0.11,0.22c-0.034,0.074 -0.077,0.11 -0.13,0.11c-0.14,0 -0.21,-0.114 -0.21,-0.34l0,-0.16c-0.207,0.073 -0.38,0.327 -0.52,0.759c-0.214,0.661 -0.52,0.991 -0.92,0.991c-0.254,0 -0.47,-0.105 -0.65,-0.315c-0.18,-0.21 -0.27,-0.462 -0.27,-0.756c0,-0.092 0.03,-0.232 0.09,-0.42c0.06,-0.186 0.09,-0.312 0.09,-0.379c0,-0.086 -0.054,-0.13 -0.16,-0.13c-0.14,0 -0.404,0.106 -0.79,0.32c-0.487,0.267 -0.964,0.609 -1.43,1.03c-0.147,0.154 -0.295,0.305 -0.445,0.454c-0.15,0.151 -0.279,0.226 -0.385,0.226c-0.147,0 -0.22,-0.07 -0.22,-0.21c0,-0.106 0.12,-0.273 0.36,-0.5c0.266,-0.254 0.62,-0.517 1.06,-0.79c0.286,-0.18 0.653,-0.394 1.1,-0.64c0.233,-0.127 0.35,-0.214 0.35,-0.26c0,-0.046 -0.027,-0.07 -0.08,-0.07l-0.191,0c-0.099,0 -0.241,0.003 -0.424,0.01c-0.184,0.007 -0.319,0.01 -0.405,0.01c-0.474,0 -0.874,-0.151 -1.2,-0.45c-0.327,-0.3 -0.49,-0.64 -0.49,-1.02c0,-0.134 0.08,-0.2 0.24,-0.2c0.206,0 0.39,0.143 0.55,0.43l0.36,0.629c0.193,0.207 0.716,0.311 1.57,0.311c0.553,0 1.213,-0.106 1.98,-0.32c0.386,-0.114 0.777,-0.23 1.17,-0.35c0.613,-0.146 1.256,-0.22 1.93,-0.22c0.633,0 1.55,0.143 2.75,0.43c1.407,0.333 2.566,0.736 3.48,1.21c1.14,0.6 1.71,1.24 1.71,1.92Z" style="fill:#030404;fill-rule:nonzero;"/></svg>