<?xml version="1.0" encoding="UTF-8" standalone="no"?>
<!DOCTYPE svg PUBLIC "-//W3C//DTD SVG 1.1//EN" "http://www.w3.org/Graphics/SVG/1.1/DTD/svg11.dtd">
<svg
    width="100%"
    height="100%"
    viewBox="0 0 17 5"
    version="1.1"
    xmlns="http://www.w3.org/2000/svg"
    xmlns:xlink="http://www.w3.org/1999/xlink"
    xml:space="preserve"
    xmlns:serif="http://www.serif.com/"
    style="fill-rule:evenodd;clip-rule:evenodd;stroke-linejoin:round;stroke-miterlimit:1.41421;"><path
    d="M16.006,3.955c0,0.141 -0.08,0.21 -0.24,0.21c-0.146,0 -0.293,-0.062 -0.44,-0.189c-0.107,-0.113 -0.213,-0.224 -0.32,-0.33c-0.426,-0.42 -0.897,-0.777 -1.41,-1.07c-0.413,-0.227 -0.693,-0.34 -0.84,-0.34c-0.1,0 -0.15,0.044 -0.15,0.13c0,0.073 0.028,0.2 0.085,0.379c0.057,0.181 0.085,0.321 0.085,0.42c0,0.341 -0.078,0.616 -0.235,0.826c-0.157,0.21 -0.355,0.315 -0.595,0.315c-0.44,0 -0.76,-0.313 -0.96,-0.94c-0.093,-0.293 -0.16,-0.477 -0.2,-0.55c-0.087,-0.16 -0.206,-0.27 -0.36,-0.33c0,0.02 0.003,0.044 0.01,0.07c0,0.02 0,0.033 0,0.04c0,0.26 -0.073,0.39 -0.22,0.39c-0.06,0 -0.105,-0.035 -0.135,-0.105c-0.03,-0.07 -0.058,-0.138 -0.085,-0.205c-0.14,-0.247 -0.453,-0.49 -0.94,-0.73c-0.38,-0.187 -0.683,-0.281 -0.91,-0.281c-0.16,0 -0.24,0.068 -0.24,0.201c0,0.1 0.025,0.245 0.075,0.435c0.05,0.19 0.075,0.328 0.075,0.415c0,0.253 -0.08,0.479 -0.24,0.675c-0.16,0.196 -0.333,0.295 -0.52,0.295c-0.213,0 -0.397,-0.07 -0.55,-0.21c-0.113,-0.107 -0.233,-0.271 -0.36,-0.49c-0.173,-0.307 -0.277,-0.484 -0.31,-0.531c-0.246,-0.352 -0.723,-0.529 -1.43,-0.529c-0.106,0 -0.16,0.05 -0.16,0.15c0,0.067 0.022,0.164 0.065,0.29c0.043,0.127 0.065,0.216 0.065,0.27c0,0.053 -0.027,0.08 -0.08,0.08c0.033,0 -0.073,-0.066 -0.32,-0.2c-0.247,-0.134 -0.53,-0.2 -0.85,-0.2c-0.54,0 -1.206,0.389 -2,1.17c-0.133,0.127 -0.326,0.346 -0.58,0.66c-0.146,0.174 -0.257,0.26 -0.33,0.26c-0.173,0 -0.26,-0.077 -0.26,-0.23l0,-0.05c1.807,-2.334 4.45,-3.5 7.93,-3.5c0.76,0 1.61,0.133 2.55,0.4c1.154,0.327 2.06,0.49 2.72,0.49c0.74,0 1.224,-0.116 1.45,-0.351c0.073,-0.073 0.207,-0.293 0.4,-0.659c0.127,-0.24 0.283,-0.36 0.47,-0.36c0.16,0 0.24,0.073 0.24,0.22c0,0.367 -0.16,0.697 -0.48,0.99c-0.34,0.306 -0.746,0.46 -1.22,0.46c-0.073,0 -0.208,-0.003 -0.405,-0.01c-0.197,-0.007 -0.358,-0.01 -0.485,-0.01c-0.06,0 -0.101,0.008 -0.125,0.025c-0.023,0.016 -0.045,0.042 -0.065,0.075l0,0.01c0,0.027 0.103,0.096 0.31,0.21c0.507,0.273 0.807,0.436 0.9,0.49c1.08,0.613 1.62,1.063 1.62,1.349Z"
    style="fill:#fff;fill-rule:nonzero;"/></svg>
